<?xml version="1.0" encoding="UTF-8" standalone="no"?>
<!DOCTYPE svg PUBLIC "-//W3C//DTD SVG 1.1//EN" "http://www.w3.org/Graphics/SVG/1.1/DTD/svg11.dtd">
<svg xmlns="http://www.w3.org/2000/svg" version="1.1" viewBox="0.00 0.00 512.00 512.00">
<g stroke-width="2.00" fill="none" stroke-linecap="butt">
<path stroke="#6a6e7e" vector-effect="non-scaling-stroke" d="
  M 97.75 421.68
  C 98.29 416.00 101.73 414.22 107.25 414.23
  Q 171.49 414.23 235.78 414.22
  Q 236.17 414.22 236.10 413.84
  L 232.71 396.18
  A 0.23 0.22 83.6 0 0 232.49 396.00
  Q 147.64 396.01 62.84 396.00
  C 49.91 395.99 41.61 394.65 32.09 387.31
  Q 31.63 386.95 31.61 387.53
  C 31.23 399.20 38.65 409.75 49.77 413.04
  C 55.84 414.84 64.87 414.17 72.01 414.14
  C 78.04 414.12 82.21 415.13 82.90 421.66"
/>
<path stroke="#767b7e" vector-effect="non-scaling-stroke" d="
  M 24.06 213.71
  C 29.96 214.33 31.53 217.89 31.53 223.56
  Q 31.53 289.03 31.43 354.50
  C 31.42 365.96 38.52 376.49 49.43 379.81
  Q 53.36 381.01 64.19 381.01
  Q 147.83 380.99 231.41 381.00
  A 0.49 0.48 -0.0 0 0 231.90 380.52
  Q 232.34 333.33 261.70 296.92
  A 0.35 0.34 26.3 0 0 261.51 296.37
  Q 251.67 293.98 249.21 285.19
  Q 248.46 282.50 248.48 276.25
  C 248.53 266.08 246.64 254.83 257.98 249.89
  Q 261.16 248.50 267.22 248.53
  Q 274.23 248.56 281.25 248.69
  C 290.86 248.86 297.50 257.04 296.57 266.40
  A 0.31 0.31 0.0 0 0 297.03 266.70
  C 338.90 242.22 389.93 242.44 431.82 267.51"
/>
<path stroke="#6a6e7e" vector-effect="non-scaling-stroke" d="
  M 431.82 267.51
  L 446.73 278.06
  Q 447.30 278.46 447.30 277.76
  L 447.30 164.74
  Q 447.30 164.20 446.76 164.20
  L 431.80 164.21"
/>
<path stroke="#767b7e" vector-effect="non-scaling-stroke" d="
  M 431.80 164.21
  L 31.84 164.15
  A 0.32 0.32 0.0 0 0 31.52 164.47
  Q 31.55 176.86 31.52 189.24
  C 31.51 194.77 29.79 198.35 24.04 198.88"
/>
<path stroke="#767b7e" vector-effect="non-scaling-stroke" d="
  M 138.42 16.35
  C 132.33 19.52 131.04 24.02 131.01 31.01
  Q 130.92 48.88 131.01 66.76
  C 131.04 73.79 132.26 78.18 138.34 81.43"
/>
<path stroke="#6a6e7e" vector-effect="non-scaling-stroke" d="
  M 138.34 81.43
  C 147.94 86.10 157.43 78.78 157.42 68.49
  Q 157.38 48.61 157.39 28.74
  C 157.39 18.54 147.79 12.33 138.42 16.35"
/>
<path stroke="#dfe9fc" vector-effect="non-scaling-stroke" d="
  M 138.34 81.43
  Q 141.83 75.82 141.85 67.75
  Q 141.90 49.13 141.86 30.50
  Q 141.84 22.24 138.42 16.35"
/>
<path stroke="#767b7e" vector-effect="non-scaling-stroke" d="
  M 328.63 16.52
  Q 321.51 20.58 321.50 28.26
  Q 321.48 49.25 321.51 70.25
  Q 321.52 77.46 328.85 81.43"
/>
<path stroke="#6a6e7e" vector-effect="non-scaling-stroke" d="
  M 328.85 81.43
  C 338.31 85.97 347.93 78.95 347.94 68.75
  Q 347.94 50.33 347.91 31.92
  C 347.89 25.66 347.36 21.03 342.47 17.57
  Q 335.94 12.95 328.63 16.52"
/>
<path stroke="#dfe9fc" vector-effect="non-scaling-stroke" d="
  M 328.85 81.43
  Q 332.46 75.61 332.47 69.75
  Q 332.49 49.13 332.48 28.50
  Q 332.47 21.82 328.63 16.52"
/>
<path stroke="#74002a" vector-effect="non-scaling-stroke" d="
  M 431.88 115.94
  L 446.82 115.92
  Q 447.30 115.92 447.30 115.45
  Q 447.32 96.07 447.29 76.63
  Q 447.27 70.01 445.98 66.02
  Q 440.37 48.76 420.14 48.14"
/>
<path stroke="#80212b" vector-effect="non-scaling-stroke" d="
  M 420.14 48.14
  L 363.49 48.18
  Q 362.92 48.18 362.92 48.75
  L 362.91 65.74
  A 0.50 0.50 0.0 0 0 363.41 66.24
  C 368.16 66.26 374.86 65.04 378.01 69.35
  C 380.96 73.39 379.17 79.30 374.32 80.80
  C 371.07 81.80 365.07 81.19 360.89 81.28
  A 0.85 0.84 13.1 0 0 360.16 81.73
  C 348.90 103.15 320.38 103.20 309.21 81.70
  Q 308.97 81.25 308.47 81.25
  C 304.84 81.26 297.88 82.00 294.67 80.71
  C 288.84 78.35 288.26 70.12 293.85 67.24
  C 296.95 65.63 302.16 66.28 306.00 66.24
  Q 306.49 66.24 306.49 65.74
  L 306.49 48.44
  A 0.30 0.30 0.0 0 0 306.19 48.14
  L 172.75 48.13
  Q 172.37 48.13 172.37 48.51
  L 172.37 65.73
  Q 172.37 66.26 172.91 66.26
  C 178.19 66.21 186.47 64.76 188.58 71.49
  Q 189.97 75.93 186.25 79.26
  C 182.70 82.43 175.11 81.24 170.33 81.26
  Q 169.82 81.27 169.59 81.73
  C 159.03 103.31 129.43 102.93 118.80 81.77
  A 0.87 0.86 -12.3 0 0 118.04 81.29
  C 114.27 81.21 107.76 82.01 104.36 80.78
  C 98.36 78.61 97.64 70.22 103.29 67.24
  C 106.36 65.63 111.71 66.27 115.47 66.25
  Q 115.99 66.25 115.99 65.73
  L 115.96 48.53
  A 0.35 0.34 0.9 0 0 115.62 48.19
  Q 86.94 48.11 58.25 47.97
  C 43.25 47.90 31.67 59.17 31.60 74.25
  Q 31.50 94.97 31.53 115.62
  A 0.33 0.32 -0.0 0 0 31.86 115.94
  L 431.88 115.94"
/>
<path stroke="#f42155" vector-effect="non-scaling-stroke" d="
  M 420.14 48.14
  Q 427.58 55.35 430.29 63.97
  Q 431.75 68.62 431.74 79.69
  Q 431.73 97.76 431.88 115.94"
/>
<path stroke="#74002a" vector-effect="non-scaling-stroke" d="
  M 431.82 149.13
  L 446.95 149.12
  A 0.35 0.35 0.0 0 0 447.30 148.77
  L 447.32 131.48
  A 0.45 0.45 0.0 0 0 446.87 131.03
  L 432.09 131.01"
/>
<path stroke="#80212b" vector-effect="non-scaling-stroke" d="
  M 432.09 131.01
  L 31.84 131.01
  Q 31.53 131.01 31.53 131.32
  L 31.53 148.70
  Q 31.53 149.13 31.96 149.13
  L 431.82 149.13"
/>
<path stroke="#f42155" vector-effect="non-scaling-stroke" d="
  M 432.09 131.01
  L 431.82 149.13"
/>
<path stroke="#152146" vector-effect="non-scaling-stroke" d="
  M 281.36 277.53
  A 0.85 0.85 0.0 0 0 281.67 276.87
  L 281.64 264.37
  A 0.85 0.85 0.0 0 0 280.79 263.52
  L 264.35 263.50
  A 0.85 0.85 0.0 0 0 263.50 264.35
  L 263.50 280.75
  A 0.85 0.85 0.0 0 0 264.35 281.60
  L 276.20 281.58
  A 0.85 0.85 0.0 0 0 276.75 281.38
  L 281.36 277.53"
/>
<path stroke="#0c4375" vector-effect="non-scaling-stroke" d="
  M 394.43 492.52
  Q 398.79 491.82 404.01 489.83
  Q 433.52 478.52 453.38 454.88
  C 484.00 418.43 489.16 365.39 465.92 323.84
  Q 443.21 283.24 397.76 268.49
  Q 395.74 267.83 393.28 267.56"
/>
<path stroke="#28567c" vector-effect="non-scaling-stroke" d="
  M 393.28 267.56
  Q 388.59 265.95 383.07 265.08
  C 333.96 257.35 285.12 280.41 261.35 324.09
  C 214.70 409.80 286.65 510.37 382.50 495.47
  Q 389.59 494.37 394.43 492.52"
/>
<path stroke="#3499f1" vector-effect="non-scaling-stroke" d="
  M 393.28 267.56
  Q 402.87 272.56 405.82 274.41
  C 472.54 316.15 484.95 406.73 431.75 464.76
  Q 416.65 481.24 394.43 492.52"
/>
<path stroke="#dfe9fc" vector-effect="non-scaling-stroke" d="
  M 431.80 164.21
  L 431.82 267.51"
/>
<path stroke="#767b7e" vector-effect="non-scaling-stroke" d="
  M 97.8640 197.9860
  A 15.63 15.63 0.0 0 0 82.3160 182.2744
  L 65.4762 182.1862
  A 15.63 15.63 0.0 0 0 49.7646 197.7342
  L 49.6760 214.6540
  A 15.63 15.63 0.0 0 0 65.2240 230.3656
  L 82.0638 230.4538
  A 15.63 15.63 0.0 0 0 97.7754 214.9058
  L 97.8640 197.9860"
/>
<path stroke="#767b7e" vector-effect="non-scaling-stroke" d="
  M 164.1440 197.9861
  A 15.63 15.63 0.0 0 0 148.5960 182.2745
  L 131.7362 182.1862
  A 15.63 15.63 0.0 0 0 116.0246 197.7341
  L 115.9360 214.6539
  A 15.63 15.63 0.0 0 0 131.4840 230.3655
  L 148.3438 230.4538
  A 15.63 15.63 0.0 0 0 164.0554 214.9059
  L 164.1440 197.9861"
/>
<path stroke="#767b7e" vector-effect="non-scaling-stroke" d="
  M 230.3993 197.9641
  A 15.65 15.65 0.0 0 0 214.8040 182.2595
  L 197.9641 182.2008
  A 15.65 15.65 0.0 0 0 182.2596 197.7960
  L 182.2007 214.6759
  A 15.65 15.65 0.0 0 0 197.7960 230.3805
  L 214.6359 230.4392
  A 15.65 15.65 0.0 0 0 230.3404 214.8440
  L 230.3993 197.9641"
/>
<path stroke="#767b7e" vector-effect="non-scaling-stroke" d="
  M 296.6646 197.9520
  A 15.67 15.67 0.0 0 0 281.0220 182.2547
  L 264.2020 182.2254
  A 15.67 15.67 0.0 0 0 248.5047 197.8680
  L 248.4754 214.6880
  A 15.67 15.67 0.0 0 0 264.1180 230.3853
  L 280.9380 230.4146
  A 15.67 15.67 0.0 0 0 296.6353 214.7720
  L 296.6646 197.9520"
/>
<path stroke="#767b7e" vector-effect="non-scaling-stroke" d="
  M 362.9246 197.9520
  A 15.67 15.67 0.0 0 0 347.2820 182.2547
  L 330.4620 182.2254
  A 15.67 15.67 0.0 0 0 314.7647 197.8680
  L 314.7354 214.6880
  A 15.67 15.67 0.0 0 0 330.3780 230.3853
  L 347.1980 230.4146
  A 15.67 15.67 0.0 0 0 362.8953 214.7720
  L 362.9246 197.9520"
/>
<path stroke="#767b7e" vector-effect="non-scaling-stroke" d="
  M 429.1992 198.0041
  A 15.68 15.68 0.0 0 0 413.5740 182.2695
  L 396.7741 182.2108
  A 15.68 15.68 0.0 0 0 381.0395 197.8360
  L 380.9808 214.6359
  A 15.68 15.68 0.0 0 0 396.6060 230.3705
  L 413.4059 230.4292
  A 15.68 15.68 0.0 0 0 429.1405 214.8040
  L 429.1992 198.0041"
/>
<path stroke="#767b7e" vector-effect="non-scaling-stroke" d="
  M 97.7902 263.9661
  A 15.55 15.55 0.0 0 0 82.1860 248.4705
  L 65.1861 248.5298
  A 15.55 15.55 0.0 0 0 49.6905 264.1340
  L 49.7498 281.1339
  A 15.55 15.55 0.0 0 0 65.3540 296.6295
  L 82.3539 296.5702
  A 15.55 15.55 0.0 0 0 97.8495 280.9660
  L 97.7902 263.9661"
/>
<path stroke="#767b7e" vector-effect="non-scaling-stroke" d="
  M 164.1441 264.1861
  A 15.56 15.56 0.0 0 0 148.6658 248.5448
  L 131.6660 248.4558
  A 15.56 15.56 0.0 0 0 116.0248 263.9341
  L 115.9359 280.9139
  A 15.56 15.56 0.0 0 0 131.4142 296.5552
  L 148.4140 296.6442
  A 15.56 15.56 0.0 0 0 164.0552 281.1659
  L 164.1441 264.1861"
/>
<path stroke="#767b7e" vector-effect="non-scaling-stroke" d="
  M 230.3994 264.1641
  A 15.58 15.58 0.0 0 0 214.8739 248.5298
  L 197.8940 248.4705
  A 15.58 15.58 0.0 0 0 182.2597 263.9960
  L 182.2006 280.9359
  A 15.58 15.58 0.0 0 0 197.7261 296.5702
  L 214.7060 296.6295
  A 15.58 15.58 0.0 0 0 230.3403 281.1040
  L 230.3994 264.1641"
/>
<path stroke="#767b7e" vector-effect="non-scaling-stroke" d="
  M 97.82 330.32
  A 15.57 15.57 0.0 0 0 82.25 314.75
  L 65.29 314.75
  A 15.57 15.57 0.0 0 0 49.72 330.32
  L 49.72 347.30
  A 15.57 15.57 0.0 0 0 65.29 362.87
  L 82.25 362.87
  A 15.57 15.57 0.0 0 0 97.82 347.30
  L 97.82 330.32"
/>
<path stroke="#767b7e" vector-effect="non-scaling-stroke" d="
  M 164.10 330.33
  A 15.57 15.57 0.0 0 0 148.53 314.76
  L 131.55 314.76
  A 15.57 15.57 0.0 0 0 115.98 330.33
  L 115.98 347.29
  A 15.57 15.57 0.0 0 0 131.55 362.86
  L 148.53 362.86
  A 15.57 15.57 0.0 0 0 164.10 347.29
  L 164.10 330.33"
/>
<path stroke="#767b7e" vector-effect="non-scaling-stroke" d="
  M 230.36 330.34
  A 15.59 15.59 0.0 0 0 214.77 314.75
  L 197.83 314.75
  A 15.59 15.59 0.0 0 0 182.24 330.34
  L 182.24 347.28
  A 15.59 15.59 0.0 0 0 197.83 362.87
  L 214.77 362.87
  A 15.59 15.59 0.0 0 0 230.36 347.28
  L 230.36 330.34"
/>
<path stroke="#152146" vector-effect="non-scaling-stroke" d="
  M 82.82 197.80
  A 0.55 0.55 0.0 0 0 82.27 197.25
  L 65.27 197.25
  A 0.55 0.55 0.0 0 0 64.72 197.80
  L 64.72 214.88
  A 0.55 0.55 0.0 0 0 65.27 215.43
  L 82.27 215.43
  A 0.55 0.55 0.0 0 0 82.82 214.88
  L 82.82 197.80"
/>
<path stroke="#152146" vector-effect="non-scaling-stroke" d="
  M 149.09 197.85
  A 0.60 0.60 0.0 0 0 148.49 197.25
  L 131.59 197.25
  A 0.60 0.60 0.0 0 0 130.99 197.85
  L 130.99 214.83
  A 0.60 0.60 0.0 0 0 131.59 215.43
  L 148.49 215.43
  A 0.60 0.60 0.0 0 0 149.09 214.83
  L 149.09 197.85"
/>
<path stroke="#152146" vector-effect="non-scaling-stroke" d="
  M 215.36 197.83
  A 0.58 0.58 0.0 0 0 214.78 197.25
  L 197.82 197.25
  A 0.58 0.58 0.0 0 0 197.24 197.83
  L 197.24 214.85
  A 0.58 0.58 0.0 0 0 197.82 215.43
  L 214.78 215.43
  A 0.58 0.58 0.0 0 0 215.36 214.85
  L 215.36 197.83"
/>
<path stroke="#152146" vector-effect="non-scaling-stroke" d="
  M 281.65 197.87
  A 0.62 0.62 0.0 0 0 281.03 197.25
  L 264.11 197.25
  A 0.62 0.62 0.0 0 0 263.49 197.87
  L 263.49 214.81
  A 0.62 0.62 0.0 0 0 264.11 215.43
  L 281.03 215.43
  A 0.62 0.62 0.0 0 0 281.65 214.81
  L 281.65 197.87"
/>
<path stroke="#152146" vector-effect="non-scaling-stroke" d="
  M 347.91 197.87
  A 0.62 0.62 0.0 0 0 347.29 197.25
  L 330.37 197.25
  A 0.62 0.62 0.0 0 0 329.75 197.87
  L 329.75 214.81
  A 0.62 0.62 0.0 0 0 330.37 215.43
  L 347.29 215.43
  A 0.62 0.62 0.0 0 0 347.91 214.81
  L 347.91 197.87"
/>
<path stroke="#152146" vector-effect="non-scaling-stroke" d="
  M 414.18 197.90
  A 0.65 0.65 0.0 0 0 413.53 197.25
  L 396.65 197.25
  A 0.65 0.65 0.0 0 0 396.00 197.90
  L 396.00 214.78
  A 0.65 0.65 0.0 0 0 396.65 215.43
  L 413.53 215.43
  A 0.65 0.65 0.0 0 0 414.18 214.78
  L 414.18 197.90"
/>
<path stroke="#152146" vector-effect="non-scaling-stroke" d="
  M 82.82 264.02
  A 0.51 0.51 0.0 0 0 82.31 263.51
  L 65.23 263.51
  A 0.51 0.51 0.0 0 0 64.72 264.02
  L 64.72 281.08
  A 0.51 0.51 0.0 0 0 65.23 281.59
  L 82.31 281.59
  A 0.51 0.51 0.0 0 0 82.82 281.08
  L 82.82 264.02"
/>
<path stroke="#152146" vector-effect="non-scaling-stroke" d="
  M 149.09 264.04
  A 0.53 0.53 0.0 0 0 148.56 263.51
  L 131.52 263.51
  A 0.53 0.53 0.0 0 0 130.99 264.04
  L 130.99 281.06
  A 0.53 0.53 0.0 0 0 131.52 281.59
  L 148.56 281.59
  A 0.53 0.53 0.0 0 0 149.09 281.06
  L 149.09 264.04"
/>
<path stroke="#152146" vector-effect="non-scaling-stroke" d="
  M 215.3452 264.0342
  A 0.54 0.54 0.0 0 0 214.8042 263.4951
  L 197.7642 263.5249
  A 0.54 0.54 0.0 0 0 197.2252 264.0658
  L 197.2548 281.0658
  A 0.54 0.54 0.0 0 0 197.7958 281.6049
  L 214.8358 281.5751
  A 0.54 0.54 0.0 0 0 215.3748 281.0342
  L 215.3452 264.0342"
/>
<path stroke="#28567c" vector-effect="non-scaling-stroke" d="
  M 462.27 380.24
  A 98.58 98.58 0.0 0 0 363.69 281.66
  A 98.58 98.58 0.0 0 0 265.11 380.24
  A 98.58 98.58 0.0 0 0 363.69 478.82
  A 98.58 98.58 0.0 0 0 462.27 380.24"
/>
<path stroke="#6a6e7e" vector-effect="non-scaling-stroke" d="
  M 383.40 461.25
  C 436.29 449.48 462.61 388.87 437.77 341.67
  Q 420.74 309.29 383.80 299.02"
/>
<path stroke="#767b7e" vector-effect="non-scaling-stroke" d="
  M 383.80 299.02
  Q 371.65 296.15 359.99 296.72
  C 320.80 298.61 287.65 327.59 281.22 366.24
  C 274.35 407.48 298.90 447.51 338.73 460.06
  Q 361.33 467.19 383.40 461.25"
/>
<path stroke="#dfe9fc" vector-effect="non-scaling-stroke" d="
  M 383.80 299.02
  Q 385.70 301.24 388.38 302.85
  C 429.36 327.55 442.88 379.04 421.98 421.52
  Q 410.12 445.64 383.40 461.25"
/>
<path stroke="#767b7e" vector-effect="non-scaling-stroke" d="
  M 387.04 387.78
  Q 396.14 387.67 405.25 387.77
  C 412.52 387.86 415.43 377.58 408.93 373.84
  Q 407.07 372.78 403.35 372.77
  Q 395.25 372.75 387.07 372.74
  Q 386.54 372.74 386.36 372.25
  Q 382.37 361.62 371.74 357.59
  Q 371.24 357.40 371.24 356.86
  Q 371.17 340.43 371.21 324.00
  Q 371.22 319.37 368.71 316.88
  C 365.36 313.56 359.75 314.27 357.33 318.38
  Q 356.24 320.24 356.23 323.85
  Q 356.20 340.31 356.22 356.80
  A 0.83 0.82 77.7 0 1 355.74 357.55
  C 354.57 358.12 353.14 358.60 352.19 359.15
  C 340.37 366.09 336.24 379.74 342.64 391.80
  C 352.44 410.28 379.09 407.50 386.32 388.28
  A 0.78 0.77 -79.5 0 1 387.04 387.78"
/>
<path stroke="#152146" vector-effect="non-scaling-stroke" d="
  M 82.8050 330.2142
  A 0.49 0.49 0.0 0 0 82.3142 329.7251
  L 65.1942 329.7550
  A 0.49 0.49 0.0 0 0 64.7051 330.2458
  L 64.7350 347.3658
  A 0.49 0.49 0.0 0 0 65.2258 347.8549
  L 82.3458 347.8250
  A 0.49 0.49 0.0 0 0 82.8349 347.3342
  L 82.8050 330.2142"
/>
<path stroke="#152146" vector-effect="non-scaling-stroke" d="
  M 149.0750 330.2042
  A 0.48 0.48 0.0 0 0 148.5942 329.7251
  L 131.4542 329.7550
  A 0.48 0.48 0.0 0 0 130.9751 330.2358
  L 131.0050 347.3758
  A 0.48 0.48 0.0 0 0 131.4858 347.8549
  L 148.6258 347.8250
  A 0.48 0.48 0.0 0 0 149.1049 347.3442
  L 149.0750 330.2042"
/>
<path stroke="#152146" vector-effect="non-scaling-stroke" d="
  M 215.3451 330.2342
  A 0.50 0.50 0.0 0 0 214.8442 329.7351
  L 197.7242 329.7650
  A 0.50 0.50 0.0 0 0 197.2251 330.2658
  L 197.2549 347.3658
  A 0.50 0.50 0.0 0 0 197.7558 347.8649
  L 214.8758 347.8350
  A 0.50 0.50 0.0 0 0 215.3749 347.3342
  L 215.3451 330.2342"
/>
<path stroke="#806f20" vector-effect="non-scaling-stroke" d="
  M 372.72 380.25
  A 9.03 9.03 0.0 0 0 363.69 371.22
  A 9.03 9.03 0.0 0 0 354.66 380.25
  A 9.03 9.03 0.0 0 0 363.69 389.28
  A 9.03 9.03 0.0 0 0 372.72 380.25"
/>
</g>
<path fill="#000000" d="
  M 141.76 0.00
  L 146.60 0.00
  Q 166.95 3.20 171.75 22.44
  C 172.54 25.61 172.35 29.39 172.38 32.78
  A 0.37 0.36 0.0 0 0 172.75 33.14
  L 305.94 33.14
  Q 306.47 33.14 306.48 32.61
  Q 306.53 30.80 306.48 27.75
  C 306.23 13.50 318.06 1.69 332.31 0.00
  L 337.23 0.00
  C 351.40 1.79 361.87 12.31 362.63 26.50
  Q 362.80 29.54 363.00 32.62
  Q 363.03 33.13 363.55 33.13
  Q 387.40 33.16 411.26 33.13
  Q 426.04 33.12 431.16 34.32
  C 448.89 38.50 462.30 54.80 462.30 73.25
  Q 462.30 182.81 462.30 292.38
  Q 462.30 292.89 462.62 293.28
  Q 464.52 295.69 466.42 298.08
  C 513.19 356.61 502.06 442.05 441.64 486.40
  Q 409.25 510.18 368.17 512.00
  L 358.24 512.00
  C 305.91 509.23 261.36 477.59 241.53 429.61
  A 0.64 0.63 -10.9 0 0 240.94 429.22
  Q 173.88 429.22 106.75 429.22
  Q 98.76 429.22 97.75 421.68
  C 98.29 416.00 101.73 414.22 107.25 414.23
  Q 171.49 414.23 235.78 414.22
  Q 236.17 414.22 236.10 413.84
  L 232.71 396.18
  A 0.23 0.22 83.6 0 0 232.49 396.00
  Q 147.64 396.01 62.84 396.00
  C 49.91 395.99 41.61 394.65 32.09 387.31
  Q 31.63 386.95 31.61 387.53
  C 31.23 399.20 38.65 409.75 49.77 413.04
  C 55.84 414.84 64.87 414.17 72.01 414.14
  C 78.04 414.12 82.21 415.13 82.90 421.66
  C 82.23 428.05 78.26 429.14 72.33 429.16
  C 63.97 429.19 54.20 429.69 47.00 427.86
  C 32.73 424.23 21.21 412.46 17.81 398.40
  Q 16.53 393.06 16.53 378.49
  Q 16.54 299.99 16.53 221.50
  Q 16.52 214.62 24.06 213.71
  C 29.96 214.33 31.53 217.89 31.53 223.56
  Q 31.53 289.03 31.43 354.50
  C 31.42 365.96 38.52 376.49 49.43 379.81
  Q 53.36 381.01 64.19 381.01
  Q 147.83 380.99 231.41 381.00
  A 0.49 0.48 -0.0 0 0 231.90 380.52
  Q 232.34 333.33 261.70 296.92
  A 0.35 0.34 26.3 0 0 261.51 296.37
  Q 251.67 293.98 249.21 285.19
  Q 248.46 282.50 248.48 276.25
  C 248.53 266.08 246.64 254.83 257.98 249.89
  Q 261.16 248.50 267.22 248.53
  Q 274.23 248.56 281.25 248.69
  C 290.86 248.86 297.50 257.04 296.57 266.40
  A 0.31 0.31 0.0 0 0 297.03 266.70
  C 338.90 242.22 389.93 242.44 431.82 267.51
  L 446.73 278.06
  Q 447.30 278.46 447.30 277.76
  L 447.30 164.74
  Q 447.30 164.20 446.76 164.20
  L 431.80 164.21
  L 31.84 164.15
  A 0.32 0.32 0.0 0 0 31.52 164.47
  Q 31.55 176.86 31.52 189.24
  C 31.51 194.77 29.79 198.35 24.04 198.88
  Q 16.52 197.96 16.52 191.00
  Q 16.56 137.87 16.52 84.76
  Q 16.51 69.92 17.61 64.83
  C 21.61 46.26 38.46 33.09 57.75 33.11
  Q 86.58 33.14 115.41 33.14
  Q 115.95 33.14 115.96 32.60
  C 116.04 29.55 115.80 26.24 116.36 23.47
  C 119.16 9.68 128.25 2.47 141.76 0.00
  Z
  M 138.42 16.35
  C 132.33 19.52 131.04 24.02 131.01 31.01
  Q 130.92 48.88 131.01 66.76
  C 131.04 73.79 132.26 78.18 138.34 81.43
  C 147.94 86.10 157.43 78.78 157.42 68.49
  Q 157.38 48.61 157.39 28.74
  C 157.39 18.54 147.79 12.33 138.42 16.35
  Z
  M 328.63 16.52
  Q 321.51 20.58 321.50 28.26
  Q 321.48 49.25 321.51 70.25
  Q 321.52 77.46 328.85 81.43
  C 338.31 85.97 347.93 78.95 347.94 68.75
  Q 347.94 50.33 347.91 31.92
  C 347.89 25.66 347.36 21.03 342.47 17.57
  Q 335.94 12.95 328.63 16.52
  Z
  M 431.88 115.94
  L 446.82 115.92
  Q 447.30 115.92 447.30 115.45
  Q 447.32 96.07 447.29 76.63
  Q 447.27 70.01 445.98 66.02
  Q 440.37 48.76 420.14 48.14
  L 363.49 48.18
  Q 362.92 48.18 362.92 48.75
  L 362.91 65.74
  A 0.50 0.50 0.0 0 0 363.41 66.24
  C 368.16 66.26 374.86 65.04 378.01 69.35
  C 380.96 73.39 379.17 79.30 374.32 80.80
  C 371.07 81.80 365.07 81.19 360.89 81.28
  A 0.85 0.84 13.1 0 0 360.16 81.73
  C 348.90 103.15 320.38 103.20 309.21 81.70
  Q 308.97 81.25 308.47 81.25
  C 304.84 81.26 297.88 82.00 294.67 80.71
  C 288.84 78.35 288.26 70.12 293.85 67.24
  C 296.95 65.63 302.16 66.28 306.00 66.24
  Q 306.49 66.24 306.49 65.74
  L 306.49 48.44
  A 0.30 0.30 0.0 0 0 306.19 48.14
  L 172.75 48.13
  Q 172.37 48.13 172.37 48.51
  L 172.37 65.73
  Q 172.37 66.26 172.91 66.26
  C 178.19 66.21 186.47 64.76 188.58 71.49
  Q 189.97 75.93 186.25 79.26
  C 182.70 82.43 175.11 81.24 170.33 81.26
  Q 169.82 81.27 169.59 81.73
  C 159.03 103.31 129.43 102.93 118.80 81.77
  A 0.87 0.86 -12.3 0 0 118.04 81.29
  C 114.27 81.21 107.76 82.01 104.36 80.78
  C 98.36 78.61 97.64 70.22 103.29 67.24
  C 106.36 65.63 111.71 66.27 115.47 66.25
  Q 115.99 66.25 115.99 65.73
  L 115.96 48.53
  A 0.35 0.34 0.9 0 0 115.62 48.19
  Q 86.94 48.11 58.25 47.97
  C 43.25 47.90 31.67 59.17 31.60 74.25
  Q 31.50 94.97 31.53 115.62
  A 0.33 0.32 -0.0 0 0 31.86 115.94
  L 431.88 115.94
  Z
  M 431.82 149.13
  L 446.95 149.12
  A 0.35 0.35 0.0 0 0 447.30 148.77
  L 447.32 131.48
  A 0.45 0.45 0.0 0 0 446.87 131.03
  L 432.09 131.01
  L 31.84 131.01
  Q 31.53 131.01 31.53 131.32
  L 31.53 148.70
  Q 31.53 149.13 31.96 149.13
  L 431.82 149.13
  Z
  M 281.36 277.53
  A 0.85 0.85 0.0 0 0 281.67 276.87
  L 281.64 264.37
  A 0.85 0.85 0.0 0 0 280.79 263.52
  L 264.35 263.50
  A 0.85 0.85 0.0 0 0 263.50 264.35
  L 263.50 280.75
  A 0.85 0.85 0.0 0 0 264.35 281.60
  L 276.20 281.58
  A 0.85 0.85 0.0 0 0 276.75 281.38
  L 281.36 277.53
  Z
  M 394.43 492.52
  Q 398.79 491.82 404.01 489.83
  Q 433.52 478.52 453.38 454.88
  C 484.00 418.43 489.16 365.39 465.92 323.84
  Q 443.21 283.24 397.76 268.49
  Q 395.74 267.83 393.28 267.56
  Q 388.59 265.95 383.07 265.08
  C 333.96 257.35 285.12 280.41 261.35 324.09
  C 214.70 409.80 286.65 510.37 382.50 495.47
  Q 389.59 494.37 394.43 492.52
  Z"
/>
<path fill="#d3dcfb" d="
  M 138.34 81.43
  Q 141.83 75.82 141.85 67.75
  Q 141.90 49.13 141.86 30.50
  Q 141.84 22.24 138.42 16.35
  C 147.79 12.33 157.39 18.54 157.39 28.74
  Q 157.38 48.61 157.42 68.49
  C 157.43 78.78 147.94 86.10 138.34 81.43
  Z"
/>
<path fill="#d3dcfb" d="
  M 328.85 81.43
  Q 332.46 75.61 332.47 69.75
  Q 332.49 49.13 332.48 28.50
  Q 332.47 21.82 328.63 16.52
  Q 335.94 12.95 342.47 17.57
  C 347.36 21.03 347.89 25.66 347.91 31.92
  Q 347.94 50.33 347.94 68.75
  C 347.93 78.95 338.31 85.97 328.85 81.43
  Z"
/>
<path fill="#ebf5fc" d="
  M 138.42 16.35
  Q 141.84 22.24 141.86 30.50
  Q 141.90 49.13 141.85 67.75
  Q 141.83 75.82 138.34 81.43
  C 132.26 78.18 131.04 73.79 131.01 66.76
  Q 130.92 48.88 131.01 31.01
  C 131.04 24.02 132.33 19.52 138.42 16.35
  Z"
/>
<path fill="#ebf5fc" d="
  M 328.63 16.52
  Q 332.47 21.82 332.48 28.50
  Q 332.49 49.13 332.47 69.75
  Q 332.46 75.61 328.85 81.43
  Q 321.52 77.46 321.51 70.25
  Q 321.48 49.25 321.50 28.26
  Q 321.51 20.58 328.63 16.52
  Z"
/>
<path fill="#ff4155" d="
  M 420.14 48.14
  Q 427.58 55.35 430.29 63.97
  Q 431.75 68.62 431.74 79.69
  Q 431.73 97.76 431.88 115.94
  L 31.86 115.94
  A 0.33 0.32 -0.0 0 1 31.53 115.62
  Q 31.50 94.97 31.60 74.25
  C 31.67 59.17 43.25 47.90 58.25 47.97
  Q 86.94 48.11 115.62 48.19
  A 0.35 0.34 0.9 0 1 115.96 48.53
  L 115.99 65.73
  Q 115.99 66.25 115.47 66.25
  C 111.71 66.27 106.36 65.63 103.29 67.24
  C 97.64 70.22 98.36 78.61 104.36 80.78
  C 107.76 82.01 114.27 81.21 118.04 81.29
  A 0.87 0.86 -12.3 0 1 118.80 81.77
  C 129.43 102.93 159.03 103.31 169.59 81.73
  Q 169.82 81.27 170.33 81.26
  C 175.11 81.24 182.70 82.43 186.25 79.26
  Q 189.97 75.93 188.58 71.49
  C 186.47 64.76 178.19 66.21 172.91 66.26
  Q 172.37 66.26 172.37 65.73
  L 172.37 48.51
  Q 172.37 48.13 172.75 48.13
  L 306.19 48.14
  A 0.30 0.30 0.0 0 1 306.49 48.44
  L 306.49 65.74
  Q 306.49 66.24 306.00 66.24
  C 302.16 66.28 296.95 65.63 293.85 67.24
  C 288.26 70.12 288.84 78.35 294.67 80.71
  C 297.88 82.00 304.84 81.26 308.47 81.25
  Q 308.97 81.25 309.21 81.70
  C 320.38 103.20 348.90 103.15 360.16 81.73
  A 0.85 0.84 13.1 0 1 360.89 81.28
  C 365.07 81.19 371.07 81.80 374.32 80.80
  C 379.17 79.30 380.96 73.39 378.01 69.35
  C 374.86 65.04 368.16 66.26 363.41 66.24
  A 0.50 0.50 0.0 0 1 362.91 65.74
  L 362.92 48.75
  Q 362.92 48.18 363.49 48.18
  L 420.14 48.14
  Z"
/>
<path fill="#e80054" d="
  M 431.88 115.94
  Q 431.73 97.76 431.74 79.69
  Q 431.75 68.62 430.29 63.97
  Q 427.58 55.35 420.14 48.14
  Q 440.37 48.76 445.98 66.02
  Q 447.27 70.01 447.29 76.63
  Q 447.32 96.07 447.30 115.45
  Q 447.30 115.92 446.82 115.92
  L 431.88 115.94
  Z"
/>
<path fill="#ff4155" d="
  M 432.09 131.01
  L 431.82 149.13
  L 31.96 149.13
  Q 31.53 149.13 31.53 148.70
  L 31.53 131.32
  Q 31.53 131.01 31.84 131.01
  L 432.09 131.01
  Z"
/>
<path fill="#e80054" d="
  M 432.09 131.01
  L 446.87 131.03
  A 0.45 0.45 0.0 0 1 447.32 131.48
  L 447.30 148.77
  A 0.35 0.35 0.0 0 1 446.95 149.12
  L 431.82 149.13
  L 432.09 131.01
  Z"
/>
<path fill="#ebf5fc" d="
  M 431.80 164.21
  L 431.82 267.51
  C 389.93 242.44 338.90 242.22 297.03 266.70
  A 0.31 0.31 0.0 0 1 296.57 266.40
  C 297.50 257.04 290.86 248.86 281.25 248.69
  Q 274.23 248.56 267.22 248.53
  Q 261.16 248.50 257.98 249.89
  C 246.64 254.83 248.53 266.08 248.48 276.25
  Q 248.46 282.50 249.21 285.19
  Q 251.67 293.98 261.51 296.37
  A 0.35 0.34 26.3 0 1 261.70 296.92
  Q 232.34 333.33 231.90 380.52
  A 0.49 0.48 -0.0 0 1 231.41 381.00
  Q 147.83 380.99 64.19 381.01
  Q 53.36 381.01 49.43 379.81
  C 38.52 376.49 31.42 365.96 31.43 354.50
  Q 31.53 289.03 31.53 223.56
  C 31.53 217.89 29.96 214.33 24.06 213.71
  L 24.04 198.88
  C 29.79 198.35 31.51 194.77 31.52 189.24
  Q 31.55 176.86 31.52 164.47
  A 0.32 0.32 0.0 0 1 31.84 164.15
  L 431.80 164.21
  Z
  M 97.8640 197.9860
  A 15.63 15.63 0.0 0 0 82.3160 182.2744
  L 65.4762 182.1862
  A 15.63 15.63 0.0 0 0 49.7646 197.7342
  L 49.6760 214.6540
  A 15.63 15.63 0.0 0 0 65.2240 230.3656
  L 82.0638 230.4538
  A 15.63 15.63 0.0 0 0 97.7754 214.9058
  L 97.8640 197.9860
  Z
  M 164.1440 197.9861
  A 15.63 15.63 0.0 0 0 148.5960 182.2745
  L 131.7362 182.1862
  A 15.63 15.63 0.0 0 0 116.0246 197.7341
  L 115.9360 214.6539
  A 15.63 15.63 0.0 0 0 131.4840 230.3655
  L 148.3438 230.4538
  A 15.63 15.63 0.0 0 0 164.0554 214.9059
  L 164.1440 197.9861
  Z
  M 230.3993 197.9641
  A 15.65 15.65 0.0 0 0 214.8040 182.2595
  L 197.9641 182.2008
  A 15.65 15.65 0.0 0 0 182.2596 197.7960
  L 182.2007 214.6759
  A 15.65 15.65 0.0 0 0 197.7960 230.3805
  L 214.6359 230.4392
  A 15.65 15.65 0.0 0 0 230.3404 214.8440
  L 230.3993 197.9641
  Z
  M 296.6646 197.9520
  A 15.67 15.67 0.0 0 0 281.0220 182.2547
  L 264.2020 182.2254
  A 15.67 15.67 0.0 0 0 248.5047 197.8680
  L 248.4754 214.6880
  A 15.67 15.67 0.0 0 0 264.1180 230.3853
  L 280.9380 230.4146
  A 15.67 15.67 0.0 0 0 296.6353 214.7720
  L 296.6646 197.9520
  Z
  M 362.9246 197.9520
  A 15.67 15.67 0.0 0 0 347.2820 182.2547
  L 330.4620 182.2254
  A 15.67 15.67 0.0 0 0 314.7647 197.8680
  L 314.7354 214.6880
  A 15.67 15.67 0.0 0 0 330.3780 230.3853
  L 347.1980 230.4146
  A 15.67 15.67 0.0 0 0 362.8953 214.7720
  L 362.9246 197.9520
  Z
  M 429.1992 198.0041
  A 15.68 15.68 0.0 0 0 413.5740 182.2695
  L 396.7741 182.2108
  A 15.68 15.68 0.0 0 0 381.0395 197.8360
  L 380.9808 214.6359
  A 15.68 15.68 0.0 0 0 396.6060 230.3705
  L 413.4059 230.4292
  A 15.68 15.68 0.0 0 0 429.1405 214.8040
  L 429.1992 198.0041
  Z
  M 97.7902 263.9661
  A 15.55 15.55 0.0 0 0 82.1860 248.4705
  L 65.1861 248.5298
  A 15.55 15.55 0.0 0 0 49.6905 264.1340
  L 49.7498 281.1339
  A 15.55 15.55 0.0 0 0 65.3540 296.6295
  L 82.3539 296.5702
  A 15.55 15.55 0.0 0 0 97.8495 280.9660
  L 97.7902 263.9661
  Z
  M 164.1441 264.1861
  A 15.56 15.56 0.0 0 0 148.6658 248.5448
  L 131.6660 248.4558
  A 15.56 15.56 0.0 0 0 116.0248 263.9341
  L 115.9359 280.9139
  A 15.56 15.56 0.0 0 0 131.4142 296.5552
  L 148.4140 296.6442
  A 15.56 15.56 0.0 0 0 164.0552 281.1659
  L 164.1441 264.1861
  Z
  M 230.3994 264.1641
  A 15.58 15.58 0.0 0 0 214.8739 248.5298
  L 197.8940 248.4705
  A 15.58 15.58 0.0 0 0 182.2597 263.9960
  L 182.2006 280.9359
  A 15.58 15.58 0.0 0 0 197.7261 296.5702
  L 214.7060 296.6295
  A 15.58 15.58 0.0 0 0 230.3403 281.1040
  L 230.3994 264.1641
  Z
  M 97.82 330.32
  A 15.57 15.57 0.0 0 0 82.25 314.75
  L 65.29 314.75
  A 15.57 15.57 0.0 0 0 49.72 330.32
  L 49.72 347.30
  A 15.57 15.57 0.0 0 0 65.29 362.87
  L 82.25 362.87
  A 15.57 15.57 0.0 0 0 97.82 347.30
  L 97.82 330.32
  Z
  M 164.10 330.33
  A 15.57 15.57 0.0 0 0 148.53 314.76
  L 131.55 314.76
  A 15.57 15.57 0.0 0 0 115.98 330.33
  L 115.98 347.29
  A 15.57 15.57 0.0 0 0 131.55 362.86
  L 148.53 362.86
  A 15.57 15.57 0.0 0 0 164.10 347.29
  L 164.10 330.33
  Z
  M 230.36 330.34
  A 15.59 15.59 0.0 0 0 214.77 314.75
  L 197.83 314.75
  A 15.59 15.59 0.0 0 0 182.24 330.34
  L 182.24 347.28
  A 15.59 15.59 0.0 0 0 197.83 362.87
  L 214.77 362.87
  A 15.59 15.59 0.0 0 0 230.36 347.28
  L 230.36 330.34
  Z"
/>
<path fill="#d3dcfb" d="
  M 431.82 267.51
  L 431.80 164.21
  L 446.76 164.20
  Q 447.30 164.20 447.30 164.74
  L 447.30 277.76
  Q 447.30 278.46 446.73 278.06
  L 431.82 267.51
  Z"
/>
<path fill="#000000" d="
  M 97.7754 214.9058
  A 15.63 15.63 0.0 0 1 82.0638 230.4538
  L 65.2240 230.3656
  A 15.63 15.63 0.0 0 1 49.6760 214.6540
  L 49.7646 197.7342
  A 15.63 15.63 0.0 0 1 65.4762 182.1862
  L 82.3160 182.2744
  A 15.63 15.63 0.0 0 1 97.8640 197.9860
  L 97.7754 214.9058
  Z
  M 82.82 197.80
  A 0.55 0.55 0.0 0 0 82.27 197.25
  L 65.27 197.25
  A 0.55 0.55 0.0 0 0 64.72 197.80
  L 64.72 214.88
  A 0.55 0.55 0.0 0 0 65.27 215.43
  L 82.27 215.43
  A 0.55 0.55 0.0 0 0 82.82 214.88
  L 82.82 197.80
  Z"
/>
<path fill="#000000" d="
  M 164.0554 214.9059
  A 15.63 15.63 0.0 0 1 148.3438 230.4538
  L 131.4840 230.3655
  A 15.63 15.63 0.0 0 1 115.9360 214.6539
  L 116.0246 197.7341
  A 15.63 15.63 0.0 0 1 131.7362 182.1862
  L 148.5960 182.2745
  A 15.63 15.63 0.0 0 1 164.1440 197.9861
  L 164.0554 214.9059
  Z
  M 149.09 197.85
  A 0.60 0.60 0.0 0 0 148.49 197.25
  L 131.59 197.25
  A 0.60 0.60 0.0 0 0 130.99 197.85
  L 130.99 214.83
  A 0.60 0.60 0.0 0 0 131.59 215.43
  L 148.49 215.43
  A 0.60 0.60 0.0 0 0 149.09 214.83
  L 149.09 197.85
  Z"
/>
<path fill="#000000" d="
  M 230.3404 214.8440
  A 15.65 15.65 0.0 0 1 214.6359 230.4392
  L 197.7960 230.3805
  A 15.65 15.65 0.0 0 1 182.2007 214.6759
  L 182.2596 197.7960
  A 15.65 15.65 0.0 0 1 197.9641 182.2008
  L 214.8040 182.2595
  A 15.65 15.65 0.0 0 1 230.3993 197.9641
  L 230.3404 214.8440
  Z
  M 215.36 197.83
  A 0.58 0.58 0.0 0 0 214.78 197.25
  L 197.82 197.25
  A 0.58 0.58 0.0 0 0 197.24 197.83
  L 197.24 214.85
  A 0.58 0.58 0.0 0 0 197.82 215.43
  L 214.78 215.43
  A 0.58 0.58 0.0 0 0 215.36 214.85
  L 215.36 197.83
  Z"
/>
<path fill="#000000" d="
  M 296.6353 214.7720
  A 15.67 15.67 0.0 0 1 280.9380 230.4146
  L 264.1180 230.3853
  A 15.67 15.67 0.0 0 1 248.4754 214.6880
  L 248.5047 197.8680
  A 15.67 15.67 0.0 0 1 264.2020 182.2254
  L 281.0220 182.2547
  A 15.67 15.67 0.0 0 1 296.6646 197.9520
  L 296.6353 214.7720
  Z
  M 281.65 197.87
  A 0.62 0.62 0.0 0 0 281.03 197.25
  L 264.11 197.25
  A 0.62 0.62 0.0 0 0 263.49 197.87
  L 263.49 214.81
  A 0.62 0.62 0.0 0 0 264.11 215.43
  L 281.03 215.43
  A 0.62 0.62 0.0 0 0 281.65 214.81
  L 281.65 197.87
  Z"
/>
<path fill="#000000" d="
  M 362.8953 214.7720
  A 15.67 15.67 0.0 0 1 347.1980 230.4146
  L 330.3780 230.3853
  A 15.67 15.67 0.0 0 1 314.7354 214.6880
  L 314.7647 197.8680
  A 15.67 15.67 0.0 0 1 330.4620 182.2254
  L 347.2820 182.2547
  A 15.67 15.67 0.0 0 1 362.9246 197.9520
  L 362.8953 214.7720
  Z
  M 347.91 197.87
  A 0.62 0.62 0.0 0 0 347.29 197.25
  L 330.37 197.25
  A 0.62 0.62 0.0 0 0 329.75 197.87
  L 329.75 214.81
  A 0.62 0.62 0.0 0 0 330.37 215.43
  L 347.29 215.43
  A 0.62 0.62 0.0 0 0 347.91 214.81
  L 347.91 197.87
  Z"
/>
<path fill="#000000" d="
  M 429.1405 214.8040
  A 15.68 15.68 0.0 0 1 413.4059 230.4292
  L 396.6060 230.3705
  A 15.68 15.68 0.0 0 1 380.9808 214.6359
  L 381.0395 197.8360
  A 15.68 15.68 0.0 0 1 396.7741 182.2108
  L 413.5740 182.2695
  A 15.68 15.68 0.0 0 1 429.1992 198.0041
  L 429.1405 214.8040
  Z
  M 414.18 197.90
  A 0.65 0.65 0.0 0 0 413.53 197.25
  L 396.65 197.25
  A 0.65 0.65 0.0 0 0 396.00 197.90
  L 396.00 214.78
  A 0.65 0.65 0.0 0 0 396.65 215.43
  L 413.53 215.43
  A 0.65 0.65 0.0 0 0 414.18 214.78
  L 414.18 197.90
  Z"
/>
<rect fill="#2a428c" x="64.72" y="197.25" width="18.10" height="18.18" rx="0.55"/>
<rect fill="#2a428c" x="130.99" y="197.25" width="18.10" height="18.18" rx="0.60"/>
<rect fill="#2a428c" x="197.24" y="197.25" width="18.12" height="18.18" rx="0.58"/>
<rect fill="#2a428c" x="263.49" y="197.25" width="18.16" height="18.18" rx="0.62"/>
<rect fill="#2a428c" x="329.75" y="197.25" width="18.16" height="18.18" rx="0.62"/>
<rect fill="#2a428c" x="396.00" y="197.25" width="18.18" height="18.18" rx="0.65"/>
<path fill="#000000" d="
  M 97.8495 280.9660
  A 15.55 15.55 0.0 0 1 82.3539 296.5702
  L 65.3540 296.6295
  A 15.55 15.55 0.0 0 1 49.7498 281.1339
  L 49.6905 264.1340
  A 15.55 15.55 0.0 0 1 65.1861 248.5298
  L 82.1860 248.4705
  A 15.55 15.55 0.0 0 1 97.7902 263.9661
  L 97.8495 280.9660
  Z
  M 82.82 264.02
  A 0.51 0.51 0.0 0 0 82.31 263.51
  L 65.23 263.51
  A 0.51 0.51 0.0 0 0 64.72 264.02
  L 64.72 281.08
  A 0.51 0.51 0.0 0 0 65.23 281.59
  L 82.31 281.59
  A 0.51 0.51 0.0 0 0 82.82 281.08
  L 82.82 264.02
  Z"
/>
<path fill="#000000" d="
  M 164.0552 281.1659
  A 15.56 15.56 0.0 0 1 148.4140 296.6442
  L 131.4142 296.5552
  A 15.56 15.56 0.0 0 1 115.9359 280.9139
  L 116.0248 263.9341
  A 15.56 15.56 0.0 0 1 131.6660 248.4558
  L 148.6658 248.5448
  A 15.56 15.56 0.0 0 1 164.1441 264.1861
  L 164.0552 281.1659
  Z
  M 149.09 264.04
  A 0.53 0.53 0.0 0 0 148.56 263.51
  L 131.52 263.51
  A 0.53 0.53 0.0 0 0 130.99 264.04
  L 130.99 281.06
  A 0.53 0.53 0.0 0 0 131.52 281.59
  L 148.56 281.59
  A 0.53 0.53 0.0 0 0 149.09 281.06
  L 149.09 264.04
  Z"
/>
<path fill="#000000" d="
  M 230.3403 281.1040
  A 15.58 15.58 0.0 0 1 214.7060 296.6295
  L 197.7261 296.5702
  A 15.58 15.58 0.0 0 1 182.2006 280.9359
  L 182.2597 263.9960
  A 15.58 15.58 0.0 0 1 197.8940 248.4705
  L 214.8739 248.5298
  A 15.58 15.58 0.0 0 1 230.3994 264.1641
  L 230.3403 281.1040
  Z
  M 215.3452 264.0342
  A 0.54 0.54 0.0 0 0 214.8042 263.4951
  L 197.7642 263.5249
  A 0.54 0.54 0.0 0 0 197.2252 264.0658
  L 197.2548 281.0658
  A 0.54 0.54 0.0 0 0 197.7958 281.6049
  L 214.8358 281.5751
  A 0.54 0.54 0.0 0 0 215.3748 281.0342
  L 215.3452 264.0342
  Z"
/>
<rect fill="#2a428c" x="64.72" y="263.51" width="18.10" height="18.08" rx="0.51"/>
<rect fill="#2a428c" x="130.99" y="263.51" width="18.10" height="18.08" rx="0.53"/>
<rect fill="#2a428c" x="-9.06" y="-9.04" transform="translate(206.30,272.55) rotate(-0.1)" width="18.12" height="18.08" rx="0.54"/>
<path fill="#2a428c" d="
  M 281.36 277.53
  L 276.75 281.38
  A 0.85 0.85 0.0 0 1 276.20 281.58
  L 264.35 281.60
  A 0.85 0.85 0.0 0 1 263.50 280.75
  L 263.50 264.35
  A 0.85 0.85 0.0 0 1 264.35 263.50
  L 280.79 263.52
  A 0.85 0.85 0.0 0 1 281.64 264.37
  L 281.67 276.87
  A 0.85 0.85 0.0 0 1 281.36 277.53
  Z"
/>
<path fill="#4fabf7" d="
  M 393.28 267.56
  Q 402.87 272.56 405.82 274.41
  C 472.54 316.15 484.95 406.73 431.75 464.76
  Q 416.65 481.24 394.43 492.52
  Q 389.59 494.37 382.50 495.47
  C 286.65 510.37 214.70 409.80 261.35 324.09
  C 285.12 280.41 333.96 257.35 383.07 265.08
  Q 388.59 265.95 393.28 267.56
  Z
  M 462.27 380.24
  A 98.58 98.58 0.0 0 0 363.69 281.66
  A 98.58 98.58 0.0 0 0 265.11 380.24
  A 98.58 98.58 0.0 0 0 363.69 478.82
  A 98.58 98.58 0.0 0 0 462.27 380.24
  Z"
/>
<path fill="#1886ea" d="
  M 393.28 267.56
  Q 395.74 267.83 397.76 268.49
  Q 443.21 283.24 465.92 323.84
  C 489.16 365.39 484.00 418.43 453.38 454.88
  Q 433.52 478.52 404.01 489.83
  Q 398.79 491.82 394.43 492.52
  Q 416.65 481.24 431.75 464.76
  C 484.95 406.73 472.54 316.15 405.82 274.41
  Q 402.87 272.56 393.28 267.56
  Z"
/>
<path fill="#000000" d="
  M 462.27 380.24
  A 98.58 98.58 0.0 0 1 363.69 478.82
  A 98.58 98.58 0.0 0 1 265.11 380.24
  A 98.58 98.58 0.0 0 1 363.69 281.66
  A 98.58 98.58 0.0 0 1 462.27 380.24
  Z
  M 383.40 461.25
  C 436.29 449.48 462.61 388.87 437.77 341.67
  Q 420.74 309.29 383.80 299.02
  Q 371.65 296.15 359.99 296.72
  C 320.80 298.61 287.65 327.59 281.22 366.24
  C 274.35 407.48 298.90 447.51 338.73 460.06
  Q 361.33 467.19 383.40 461.25
  Z"
/>
<path fill="#ebf5fc" d="
  M 383.80 299.02
  Q 385.70 301.24 388.38 302.85
  C 429.36 327.55 442.88 379.04 421.98 421.52
  Q 410.12 445.64 383.40 461.25
  Q 361.33 467.19 338.73 460.06
  C 298.90 447.51 274.35 407.48 281.22 366.24
  C 287.65 327.59 320.80 298.61 359.99 296.72
  Q 371.65 296.15 383.80 299.02
  Z
  M 387.04 387.78
  Q 396.14 387.67 405.25 387.77
  C 412.52 387.86 415.43 377.58 408.93 373.84
  Q 407.07 372.78 403.35 372.77
  Q 395.25 372.75 387.07 372.74
  Q 386.54 372.74 386.36 372.25
  Q 382.37 361.62 371.74 357.59
  Q 371.24 357.40 371.24 356.86
  Q 371.17 340.43 371.21 324.00
  Q 371.22 319.37 368.71 316.88
  C 365.36 313.56 359.75 314.27 357.33 318.38
  Q 356.24 320.24 356.23 323.85
  Q 356.20 340.31 356.22 356.80
  A 0.83 0.82 77.7 0 1 355.74 357.55
  C 354.57 358.12 353.14 358.60 352.19 359.15
  C 340.37 366.09 336.24 379.74 342.64 391.80
  C 352.44 410.28 379.09 407.50 386.32 388.28
  A 0.78 0.77 -79.5 0 1 387.04 387.78
  Z"
/>
<path fill="#d3dcfb" d="
  M 383.80 299.02
  Q 420.74 309.29 437.77 341.67
  C 462.61 388.87 436.29 449.48 383.40 461.25
  Q 410.12 445.64 421.98 421.52
  C 442.88 379.04 429.36 327.55 388.38 302.85
  Q 385.70 301.24 383.80 299.02
  Z"
/>
<path fill="#000000" d="
  M 97.82 347.30
  A 15.57 15.57 0.0 0 1 82.25 362.87
  L 65.29 362.87
  A 15.57 15.57 0.0 0 1 49.72 347.30
  L 49.72 330.32
  A 15.57 15.57 0.0 0 1 65.29 314.75
  L 82.25 314.75
  A 15.57 15.57 0.0 0 1 97.82 330.32
  L 97.82 347.30
  Z
  M 82.8050 330.2142
  A 0.49 0.49 0.0 0 0 82.3142 329.7251
  L 65.1942 329.7550
  A 0.49 0.49 0.0 0 0 64.7051 330.2458
  L 64.7350 347.3658
  A 0.49 0.49 0.0 0 0 65.2258 347.8549
  L 82.3458 347.8250
  A 0.49 0.49 0.0 0 0 82.8349 347.3342
  L 82.8050 330.2142
  Z"
/>
<path fill="#000000" d="
  M 164.10 347.29
  A 15.57 15.57 0.0 0 1 148.53 362.86
  L 131.55 362.86
  A 15.57 15.57 0.0 0 1 115.98 347.29
  L 115.98 330.33
  A 15.57 15.57 0.0 0 1 131.55 314.76
  L 148.53 314.76
  A 15.57 15.57 0.0 0 1 164.10 330.33
  L 164.10 347.29
  Z
  M 149.0750 330.2042
  A 0.48 0.48 0.0 0 0 148.5942 329.7251
  L 131.4542 329.7550
  A 0.48 0.48 0.0 0 0 130.9751 330.2358
  L 131.0050 347.3758
  A 0.48 0.48 0.0 0 0 131.4858 347.8549
  L 148.6258 347.8250
  A 0.48 0.48 0.0 0 0 149.1049 347.3442
  L 149.0750 330.2042
  Z"
/>
<path fill="#000000" d="
  M 230.36 347.28
  A 15.59 15.59 0.0 0 1 214.77 362.87
  L 197.83 362.87
  A 15.59 15.59 0.0 0 1 182.24 347.28
  L 182.24 330.34
  A 15.59 15.59 0.0 0 1 197.83 314.75
  L 214.77 314.75
  A 15.59 15.59 0.0 0 1 230.36 330.34
  L 230.36 347.28
  Z
  M 215.3451 330.2342
  A 0.50 0.50 0.0 0 0 214.8442 329.7351
  L 197.7242 329.7650
  A 0.50 0.50 0.0 0 0 197.2251 330.2658
  L 197.2549 347.3658
  A 0.50 0.50 0.0 0 0 197.7558 347.8649
  L 214.8758 347.8350
  A 0.50 0.50 0.0 0 0 215.3749 347.3342
  L 215.3451 330.2342
  Z"
/>
<path fill="#000000" d="
  M 386.32 388.28
  C 379.09 407.50 352.44 410.28 342.64 391.80
  C 336.24 379.74 340.37 366.09 352.19 359.15
  C 353.14 358.60 354.57 358.12 355.74 357.55
  A 0.83 0.82 77.7 0 0 356.22 356.80
  Q 356.20 340.31 356.23 323.85
  Q 356.24 320.24 357.33 318.38
  C 359.75 314.27 365.36 313.56 368.71 316.88
  Q 371.22 319.37 371.21 324.00
  Q 371.17 340.43 371.24 356.86
  Q 371.24 357.40 371.74 357.59
  Q 382.37 361.62 386.36 372.25
  Q 386.54 372.74 387.07 372.74
  Q 395.25 372.75 403.35 372.77
  Q 407.07 372.78 408.93 373.84
  C 415.43 377.58 412.52 387.86 405.25 387.77
  Q 396.14 387.67 387.04 387.78
  A 0.78 0.77 -79.5 0 0 386.32 388.28
  Z
  M 372.72 380.25
  A 9.03 9.03 0.0 0 0 363.69 371.22
  A 9.03 9.03 0.0 0 0 354.66 380.25
  A 9.03 9.03 0.0 0 0 363.69 389.28
  A 9.03 9.03 0.0 0 0 372.72 380.25
  Z"
/>
<rect fill="#2a428c" x="-9.05" y="-9.05" transform="translate(73.77,338.79) rotate(-0.1)" width="18.10" height="18.10" rx="0.49"/>
<rect fill="#2a428c" x="-9.05" y="-9.05" transform="translate(140.04,338.79) rotate(-0.1)" width="18.10" height="18.10" rx="0.48"/>
<rect fill="#2a428c" x="-9.06" y="-9.05" transform="translate(206.30,338.80) rotate(-0.1)" width="18.12" height="18.10" rx="0.50"/>
<circle fill="#ffdd40" cx="363.69" cy="380.25" r="9.03"/>
<path fill="#d3dcfb" d="
  M 97.75 421.68
  L 82.90 421.66
  C 82.21 415.13 78.04 414.12 72.01 414.14
  C 64.87 414.17 55.84 414.84 49.77 413.04
  C 38.65 409.75 31.23 399.20 31.61 387.53
  Q 31.63 386.95 32.09 387.31
  C 41.61 394.65 49.91 395.99 62.84 396.00
  Q 147.64 396.01 232.49 396.00
  A 0.23 0.22 83.6 0 1 232.71 396.18
  L 236.10 413.84
  Q 236.17 414.22 235.78 414.22
  Q 171.49 414.23 107.25 414.23
  C 101.73 414.22 98.29 416.00 97.75 421.68
  Z"
/>
</svg>
