<?xml version="1.0" ?>
<!-- Uploaded to: SVG Repo, www.svgrepo.com, Generator: SVG Repo Mixer Tools -->
<svg width="800px" height="800px" viewBox="0 0 32 32" xmlns="http://www.w3.org/2000/svg">
<defs>
<style>.cls-1{fill:#005792;}</style>
</defs>
<title/>
<g id="User">
<path class="cls-1" d="M16.4,15.66a8.74,8.74,0,0,0,1.23-1.58,7,7,0,0,0,1-3.59,6.68,6.68,0,0,0-.3-2h0A13.51,13.51,0,0,1,19.6,7a11.82,11.82,0,0,1,.92-1A5.67,5.67,0,0,1,22,9.84,5.91,5.91,0,0,1,16.4,15.66Z"/>
<path class="cls-1" d="M16,17.62c0-.1.07-1.19.07-1.3s-.07.45-.07,0h.67a11.48,11.48,0,0,1,8.58,3.84A10.79,10.79,0,0,1,28,27.35a.65.65,0,0,1-.67.65H23.76c-.08-.44-.19-.88-.31-1.3a14.26,14.26,0,0,0-5.92-7.94h0Z"/>
<path class="cls-1" d="M16.44,5.32A10.58,10.58,0,0,0,15,4.08,6,6,0,0,1,20.52,6,5.67,5.67,0,0,1,22,9.84a5.91,5.91,0,0,1-5.6,5.82,8.74,8.74,0,0,0,1.23-1.58,7,7,0,0,0,1-3.59,6.68,6.68,0,0,0-.3-2h0A8.24,8.24,0,0,0,16.44,5.32Z"/>
<path d="M20.52,6A6,6,0,0,0,15,4.08a5.9,5.9,0,0,0-5,5.76,5.93,5.93,0,0,0,6,5.84,2.68,2.68,0,0,0,.4,0A5.91,5.91,0,0,0,22,9.84,5.67,5.67,0,0,0,20.52,6Zm-2.89,8.07a4.67,4.67,0,0,1-1.63.3,4.62,4.62,0,0,1-4.67-4.54A4.61,4.61,0,0,1,16,5.3l.44,0A4.67,4.67,0,0,1,19.6,7a4.41,4.41,0,0,1,1.07,2.88A4.54,4.54,0,0,1,17.63,14.08Z"/>
<path d="M25.25,20.16a11.48,11.48,0,0,0-8.58-3.84H15.33A11.2,11.2,0,0,0,4,27.35a.65.65,0,0,0,.67.65H27.33a.65.65,0,0,0,.67-.65A10.79,10.79,0,0,0,25.25,20.16ZM5.36,26.7a9.89,9.89,0,0,1,10-9.08h1.34a10.19,10.19,0,0,1,6.77,2.58,9.56,9.56,0,0,1,3.2,6.5Z"/>
</g>
</svg>